# xmcd CD database file
#
# Track frame offsets:
#	150
#	15183
#	30983
#	46411
#	61519
#	76801
#	87990
#	103724
#	121468
#	135835
#
# Disc length: 1989 seconds
#
# Revision: 3
# Processed by: cddbd v1.5.2PL0 Copyright (c) Steve Scherf et al.
# Submitted via: CDex 1.70beta2
#
DISCID=6407c30a
DTITLE=Μελίνα Κανά - Φέγγει αλλιώτικα
DYEAR=2003
DGENRE=Ballad
TTITLE0=Άρνηση
TTITLE1=Ποιάν αγάπη
TTITLE2=Πρώτο φιλί
TTITLE3=Αρτέμιδα
TTITLE4=Μια μικρούλα στιγμή
TTITLE5=Αν δεν σε δω
TTITLE6=Ψυχή γεφύρι
TTITLE7=Της αγάπης το βοτάνι
TTITLE8=Με δυο ευχές
TTITLE9=Φέγγει αλλιώτικα
EXTD=YEAR: 2003
EXTT0=
EXTT1=
EXTT2=
EXTT3=
EXTT4=
EXTT5=
EXTT6=
EXTT7=
EXTT8=
EXTT9=
PLAYORDER=
